:SAMPLES-PER-SECOND 30
:FRAME-RANGE 1-663
:FULLY-SPECIFIED
:DEGREES
208
root  35.4133 39.2338 103.259 -1.8424 -60.1276 0.631015
RightUpLeg  2.01351 -7.63752 -9.81773
RightLeg  -1.72232 -5.52978 -1.20336
RightFoot  2.37074 -1.39578 11.7065
RightToes  2.91037e-010 0 -3.6325e-017
Spine  2.03063 0.165979 -0.975162
Spine1  2.46198 0.643133 -2.72603
HEad  14.7379 -8.97797 0.228644
LeftShoulder1  1.16152 0.360534 -30.8876
LeftArm  13.5944 7.73261 -29.7488
LeftForeArm  -0.659286 -14.4483 -12.1129
LeftHand  0.392214 -2.19516 -5.83463
RightShoulder  6.70657 8.16816 50.3382
RightArm  17.1784 -2.41684 16.9583
RightForeArm  11.6743 11.0401 13.2103
RightHand  0.157607 3.66451 1.76463
LeftUpLeg  -0.729075 6.6313 -0.251383
LeftLeg  5.74183 2.27636 -2.613
LeftFoot  -3.19214 0.0170121 0.144253
LeftToes  -4.9116e-011 5.71383e-011 -3.31847e-011
209
root  35.4517 39.1921 103.416 -2.55583 -59.9792 0.990629
RightUpLeg  2.0281 -7.81296 -10.2819
RightLeg  -0.655537 -5.29436 -1.50388
RightFoot  1.76969 -1.37955 12.0692
RightToes  2.91037e-010 0 -3.6325e-017
Spine  2.04715 0.253625 -1.05447
Spine1  2.56469 0.68023 -2.53741
HEad  14.2425 -9.51262 0.0934771
LeftShoulder1  1.1935 0.275812 -30.9098
LeftArm  16.377 5.98971 -30.0244
LeftForeArm  -2.92106 -16.4841 -10.59
LeftHand  0.383303 -2.34768 -5.5722
RightShoulder  7.17807 9.04368 50.1159
RightArm  19.0576 -1.39746 17.3769
RightForeArm  9.20322 13.5388 11.6793
RightHand  0.109665 3.62347 1.15832
LeftUpLeg  -0.441399 6.48169 -0.669394
LeftLeg  6.23282 2.24561 -2.57771
LeftFoot  -3.68717 0.00914168 0.237646
LeftToes  -4.9116e-011 5.71383e-011 -3.31847e-011
210
root  35.5056 39.1281 103.597 -3.63028 -59.9456 1.72097
RightUpLeg  1.59621 -8.18666 -11.0285
RightLeg  1.34693 -4.66311 -1.83423
RightFoot  0.774539 -1.31197 12.3678
RightToes  2.91037e-010 0 -3.6325e-017
Spine  2.39801 0.337974 -0.727931
Spine1  2.21065 0.925324 -3.44578
HEad  13.8575 -10.159 0.384354
LeftShoulder1  1.23097 0.119808 -30.3088
LeftArm  18.5024 4.65286 -30.5811
LeftForeArm  -4.41776 -17.9964 -9.31714
LeftHand  0.362729 -2.48877 -5.15677
RightShoulder  7.54225 9.5939 50.4402
RightArm  19.8433 -0.234774 17.5029
RightForeArm  8.02433 14.9161 10.6876
RightHand  0.0834246 3.67341 0.812375
LeftUpLeg  -0.231737 6.07775 -1.44816
LeftLeg  6.95554 2.7691 -2.27778
LeftFoot  -4.58604 0.0422396 -0.302157
LeftToes  -4.9116e-011 5.71383e-011 -3.31847e-011
211
root  35.5556 39.0268 103.756 -4.63384 -60.0344 2.46903
RightUpLeg  0.456872 -7.97378 -11.5753
RightLeg  4.38662 -4.45988 -2.38972
RightFoot  -0.492341 -1.20674 12.625
RightToes  2.91037e-010 0 -3.6325e-017
Spine  2.68811 0.51061 -0.928357
Spine1  2.15453 1.07385 -3.49994
HEad  13.1282 -10.8933 0.400216
LeftShoulder1  1.2544 0.0901338 -30.6834
LeftArm  20.9616 3.03378 -30.4384
LeftForeArm  -6.48021 -19.3534 -8.18694
LeftHand  0.364281 -2.5455 -5.13771
RightShoulder  7.80301 10.0676 50.3612
RightArm  20.4475 1.13513 17.4864
RightForeArm  6.96724 15.7755 10.0593
RightHand  0.0557825 3.57271 0.470658
LeftUpLeg  -0.323642 6.03076 -2.02954
LeftLeg  8.14494 2.99653 -2.27588
LeftFoot  -5.5982 0.0491656 -0.429296
LeftToes  -4.9116e-011 5.71383e-011 -3.31847e-011
212
root  35.5995 38.8828 103.884 -5.95919 -60.3598 3.5455
RightUpLeg  -1.43209 -6.12091 -12.3102
RightLeg  8.85565 -5.90039 -2.68446
RightFoot  -1.92647 -1.05068 12.5523
RightToes  2.91037e-010 0 -3.6325e-017
Spine  3.32691 0.685432 -1.48096
Spine1  1.75721 1.24306 -3.89024
HEad  12.3787 -11.5539 0.671994
LeftShoulder1  1.27691 0.00805755 -30.4635
LeftArm  22.1403 2.03864 -30.7468
LeftForeArm  -6.92213 -20.1347 -7.4875
LeftHand  0.368096 -2.6717 -5.10153
RightShoulder  8.32659 10.9977 50.2892
RightArm  19.7683 1.58249 17.6748
RightForeArm  6.93222 16.1673 9.67855
RightHand  0.0287876 3.46153 0.130465
LeftUpLeg  -0.643587 6.16222 -2.68208
LeftLeg  9.87089 3.43636 -2.2554
LeftFoot  -6.99385 0.0714443 -0.78664
LeftToes  -4.9116e-011 5.71383e-011 -3.31847e-011
213
root  35.631 38.6973 103.986 -7.57478 -60.9452 4.73399
RightUpLeg  -3.83938 -3.68709 -13.0817
RightLeg  14.7282 -10.701 -3.49745
RightFoot  -2.99252 -1.02449 13.6951
RightToes  2.91037e-010 0 -3.6325e-017
Spine  4.287 0.825897 -2.14475
Spine1  1.36345 1.37828 -4.48664
HEad  11.4951 -12.0115 0.981329
LeftShoulder1  1.2983 -0.08509 -30.1085
LeftArm  22.4063 1.45958 -31.1819
LeftForeArm  -6.88111 -20.5651 -7.08921
LeftHand  0.351793 -2.57553 -4.93365
RightShoulder  8.77438 11.6814 50.6002
RightArm  18.7352 2.4342 17.6237
RightForeArm  7.69401 15.9144 9.80864
RightHand  0.0188327 3.42624 0.00240848
LeftUpLeg  -0.897001 6.67685 -3.13761
LeftLeg  11.9753 3.4648 -2.41856
LeftFoot  -8.43786 0.0633344 -0.66085
LeftToes  -4.9116e-011 5.71383e-011 -3.31847e-011
214
root  35.6471 38.5646 104.087 -9.05606 -61.7415 5.65748
RightUpLeg  -6.65993 -4.73692 -13.1267
RightLeg  21.1043 -13.4107 -5.84232
RightFoot  -2.68204 -1.06576 13.7723
RightToes  2.91037e-010 0 -3.6325e-017
Spine  5.30181 0.907561 -2.9184
Spine1  1.19448 1.33649 -4.41747
HEad  10.3921 -12.1106 1.38072
LeftShoulder1  1.30639 -0.0885646 -30.3012
LeftArm  22.7639 1.16695 -31.1736
LeftForeArm  -7.27556 -20.9661 -6.76879
LeftHand  0.350353 -2.59508 -4.89896
RightShoulder  9.29451 12.5412 50.7205
RightArm  16.3618 3.31569 17.6297
RightForeArm  9.87052 14.6355 10.6196
RightHand  0.00502761 3.37074 -0.176556
LeftUpLeg  -0.721601 7.28529 -3.42126
LeftLeg  13.3838 3.82302 -2.50603
LeftFoot  -9.49525 0.0688333 -0.733246
LeftToes  -4.9116e-011 5.71383e-011 -3.31847e-011
215
root  35.6416 38.4836 104.186 -9.54743 -62.82 5.86798
RightUpLeg  -10.0221 -6.12293 -12.2268
RightLeg  27.2793 -16.4424 -9.20987
RightFoot  -1.2599 -1.01349 11.3575
RightToes  2.91037e-010 0 -3.6325e-017
Spine  6.0297 1.01185 -2.81098
Spine1  0.893216 1.50394 -4.9132
HEad  9.66298 -12.5347 1.69566
LeftShoulder1  1.34981 -0.206354 -30.3188
LeftArm  23.1675 1.0185 -31.2263
LeftForeArm  -7.4883 -20.9558 -6.7963
LeftHand  0.344127 -2.59703 -4.80705
RightShoulder  9.49428 12.7565 51.117
RightArm  13.7234 4.1468 17.5352
RightForeArm  12.6578 12.9934 11.5625
RightHand  -0.00415258 3.33552 -0.296908
LeftUpLeg  -0.779807 7.65155 -3.48193
LeftLeg  14.4206 4.6056 -2.22702
LeftFoot  -10.2339 0.0678364 -0.661581
LeftToes  -4.9116e-011 5.71383e-011 -3.31847e-011
216
root  35.5762 38.4336 104.312 -9.9339 -63.8963 6.06571
RightUpLeg  -13.1299 -7.52659 -10.9916
RightLeg  32.1479 -17.5202 -11.7372
RightFoot  0.157033 -0.842701 8.36612
RightToes  2.91037e-010 0 -3.6325e-017
Spine  6.33582 0.998617 -2.82301
Spine1  0.851491 1.53679 -5.10632
HEad  9.26575 -12.9724 1.85992
LeftShoulder1  1.3729 -0.27831 -30.2372
LeftArm  23.4787 1.26639 -31.4293
LeftForeArm  -7.63053 -20.9115 -6.84782
LeftHand  0.354523 -2.56723 -4.97937
RightShoulder  9.64004 12.9583 51.2615
RightArm  11.2261 4.3049 17.7505
RightForeArm  15.1983 11.329 12.3844
RightHand  0.00439823 3.34158 -0.183413
LeftUpLeg  -0.592403 8.20992 -3.3891
LeftLeg  15.0011 5.02593 -2.21325
LeftFoot  -10.8284 0.0692936 -0.961162
LeftToes  -4.9116e-011 5.71383e-011 -3.31847e-011
217
root  35.4616 38.3805 104.434 -10.3456 -64.8876 6.42088
RightUpLeg  -15.5181 -9.21808 -9.677
RightLeg  34.0986 -13.8482 -10.1144
RightFoot  -1.23987 -0.821026 9.17469
RightToes  2.91037e-010 0 -3.6325e-017
Spine  6.57312 0.896181 -3.38155
Spine1  0.619553 1.35144 -4.82633
HEad  9.19018 -12.7772 1.93763
LeftShoulder1  1.38068 -0.288103 -30.35
LeftArm  23.6803 1.89321 -31.5455
LeftForeArm  -7.38544 -20.8661 -6.87712
LeftHand  0.380877 -2.59336 -5.34422
RightShoulder  9.66046 12.9556 51.3764
RightArm  9.95129 4.10236 17.943
RightForeArm  16.5643 9.80657 13.138
RightHand  -0.0147461 3.27146 -0.436485
LeftUpLeg  -0.41592 8.63952 -3.373
LeftLeg  15.4338 5.69348 -2.20074
LeftFoot  -11.1549 0.0677095 -0.46069
LeftToes  -4.9116e-011 5.71383e-011 -3.31847e-011
